<svg xmlns="http://www.w3.org/2000/svg" viewBox="0 0 590.04 78.46"><g><path d="M30.69,31.35c0,2.13,1.73,3.85,3.85,3.85h3.16v-7.71h-3.16c-2.12,0-3.85,1.72-3.85,3.85Z" fill="#d0232a"/><path d="M63.7,43.26h-3.15v7.7h3.15c2.13,0,3.85-1.73,3.85-3.85s-1.72-3.85-3.85-3.85Z" fill="#d0232a"/><path d="M30.69,47.07c0,2.13,1.73,3.85,3.85,3.85h3.16v-7.71h-3.16c-2.12,0-3.85,1.73-3.85,3.86Z" fill="#d0232a"/><path d="M63.7,27.54h-3.15v7.71h3.15c2.13,0,3.85-1.73,3.85-3.86s-1.72-3.85-3.85-3.85Z" fill="#d0232a"/><path d="M48.74,0C21.82,0,0,17.57,0,39.23s21.82,39.23,48.74,39.23,48.75-17.57,48.75-39.23S75.66,0,48.74,0Zm27.32,47.35c0,6.27-4.99,11.37-11.21,11.57v.03h-11.64v-.02h-.08v-15.73h-8.05v15.73h-.04v.02h-11.64v-.04c-6.23-.2-11.22-5.3-11.22-11.57,0-3.16,1.27-6.03,3.32-8.12-2.06-2.09-3.32-4.95-3.32-8.12,0-6.27,4.99-11.37,11.22-11.57v-.03h11.64v.02h.04v15.73h8.05v-15.73h.08v-.02h11.64v.04c6.23,.2,11.21,5.3,11.21,11.57,0,3.16-1.27,6.03-3.32,8.11,2.05,2.09,3.32,4.95,3.32,8.12Z" fill="#d0232a"/></g><g><path d="M119.01,25.23h16.2c2.7,0,4.77,.67,6.22,2.01,1.45,1.34,2.17,2.99,2.17,4.97,0,1.66-.52,3.08-1.55,4.26-.69,.79-1.69,1.41-3.02,1.87,2.01,.48,3.49,1.31,4.44,2.49,.95,1.18,1.42,2.66,1.42,4.44,0,1.45-.34,2.76-1.01,3.92-.67,1.16-1.6,2.08-2.77,2.75-.73,.42-1.82,.73-3.29,.92-1.95,.25-3.24,.38-3.88,.38h-14.94V25.23Zm8.73,10.98h3.76c1.35,0,2.29-.23,2.82-.7,.53-.46,.79-1.14,.79-2.01,0-.81-.26-1.45-.79-1.91s-1.45-.69-2.76-.69h-3.82v5.31Zm0,11h4.41c1.49,0,2.54-.26,3.15-.79,.61-.53,.92-1.24,.92-2.13,0-.83-.3-1.49-.91-2-.61-.5-1.67-.75-3.18-.75h-4.39v5.67Z"/><path d="M153.31,25.23h23.19v5.98h-14.52v4.45h13.47v5.71h-13.47v5.52h14.94v6.34h-23.61V25.23Z"/><path d="M185.55,25.23h8.08l10.54,15.49v-15.49h8.16v28h-8.16l-10.49-15.38v15.38h-8.14V25.23Z"/><path d="M240.64,41.77l7.58,2.29c-.51,2.13-1.31,3.9-2.41,5.33-1.1,1.43-2.46,2.5-4.08,3.23-1.62,.73-3.69,1.09-6.2,1.09-3.04,0-5.53-.44-7.46-1.33-1.93-.88-3.59-2.44-4.99-4.67-1.4-2.23-2.1-5.08-2.1-8.55,0-4.63,1.23-8.19,3.7-10.68,2.46-2.49,5.95-3.73,10.46-3.73,3.53,0,6.3,.71,8.32,2.14,2.02,1.43,3.52,3.62,4.5,6.57l-7.64,1.7c-.27-.85-.55-1.48-.84-1.87-.48-.66-1.08-1.17-1.78-1.53-.7-.36-1.48-.53-2.35-.53-1.96,0-3.46,.79-4.51,2.37-.79,1.17-1.18,3.01-1.18,5.51,0,3.1,.47,5.23,1.41,6.38,.94,1.15,2.27,1.73,3.97,1.73s2.91-.46,3.75-1.39c.85-.93,1.46-2.28,1.84-4.05Z"/><path d="M256.37,25.23h8.65v9.8h9.46v-9.8h8.69v28h-8.69v-11.33h-9.46v11.33h-8.65V25.23Z"/><path d="M292.74,25.23h11.38l4.39,17.04,4.36-17.04h11.37v28h-7.09V31.88l-5.46,21.36h-6.42l-5.45-21.36v21.36h-7.09V25.23Z"/><path d="M350.88,48.61h-9.82l-1.37,4.62h-8.83l10.53-28h9.44l10.52,28h-9.06l-1.4-4.62Zm-1.79-6.06l-3.09-10.07-3.06,10.07h6.15Z"/><path d="M368.12,53.23V25.23h14.42c2.67,0,4.72,.23,6.13,.69,1.41,.46,2.55,1.31,3.42,2.55s1.3,2.75,1.3,4.54c0,1.55-.33,2.89-.99,4.02-.66,1.13-1.57,2.04-2.73,2.74-.74,.45-1.75,.82-3.04,1.11,1.03,.34,1.78,.69,2.25,1.03,.32,.23,.78,.72,1.38,1.47,.61,.75,1.01,1.33,1.21,1.74l4.19,8.11h-9.78l-4.63-8.56c-.59-1.11-1.11-1.83-1.57-2.16-.62-.43-1.33-.65-2.12-.65h-.76v11.37h-8.69Zm8.69-16.66h3.65c.39,0,1.16-.13,2.29-.38,.57-.11,1.04-.41,1.4-.88,.36-.47,.54-1.01,.54-1.62,0-.9-.29-1.6-.86-2.08-.57-.48-1.65-.72-3.23-.72h-3.8v5.69Z"/><path d="M402.39,25.23h8.65v10.58l9.06-10.58h11.51l-10.22,10.57,10.68,17.43h-10.66l-5.9-11.52-4.47,4.68v6.83h-8.65V25.23Z"/><path d="M455.83,25.23h16.2c2.7,0,4.77,.67,6.22,2.01,1.45,1.34,2.17,2.99,2.17,4.97,0,1.66-.52,3.08-1.55,4.26-.69,.79-1.69,1.41-3.02,1.87,2.01,.48,3.49,1.31,4.44,2.49,.95,1.18,1.42,2.66,1.42,4.44,0,1.45-.34,2.76-1.01,3.92s-1.6,2.08-2.77,2.75c-.73,.42-1.82,.73-3.29,.92-1.95,.25-3.24,.38-3.88,.38h-14.94V25.23Zm8.73,10.98h3.76c1.35,0,2.29-.23,2.82-.7,.53-.46,.79-1.14,.79-2.01,0-.81-.26-1.45-.79-1.91-.53-.46-1.45-.69-2.76-.69h-3.82v5.31Zm0,11h4.41c1.49,0,2.54-.26,3.15-.79,.61-.53,.92-1.24,.92-2.13,0-.83-.3-1.49-.91-2-.61-.5-1.67-.75-3.18-.75h-4.39v5.67Z"/><path d="M506.69,48.61h-9.82l-1.36,4.62h-8.84l10.53-28h9.44l10.52,28h-9.06l-1.4-4.62Zm-1.79-6.06l-3.09-10.07-3.06,10.07h6.15Z"/><path d="M523.88,25.23h8.08l10.54,15.49v-15.49h8.16v28h-8.16l-10.49-15.38v15.38h-8.14V25.23Z"/><path d="M560.35,25.23h8.65v10.58l9.06-10.58h11.51l-10.22,10.57,10.68,17.43h-10.66l-5.9-11.52-4.47,4.68v6.83h-8.65V25.23Z"/></g></svg>