<?xml version="1.0" encoding="utf-8"?>
<!-- Generator: Adobe Illustrator 22.0.0, SVG Export Plug-In . SVG Version: 6.00 Build 0)  -->
<svg version="1.1" id="Layer_1" xmlns="http://www.w3.org/2000/svg" xmlns:xlink="http://www.w3.org/1999/xlink" x="0px" y="0px"
	 viewBox="0 0 135 40" style="enable-background:new 0 0 135 40;" xml:space="preserve">
<style type="text/css">
	.st0{fill:#A6A6A6;}
	.st1{fill:#FFFFFF;stroke:#FFFFFF;stroke-width:0.2;stroke-miterlimit:10;}
	.st2{fill:#FFFFFF;}
	.st3{fill:url(#SVGID_1_);}
	.st4{fill:url(#SVGID_2_);}
	.st5{fill:url(#SVGID_3_);}
	.st6{fill:url(#SVGID_4_);}
	.st7{opacity:0.2;enable-background:new    ;}
	.st8{opacity:0.12;enable-background:new    ;}
	.st9{opacity:0.25;fill:#FFFFFF;enable-background:new    ;}
</style>
<title>fil_get</title>
<path d="M5,0h125c2.76,0,5,2.24,5,5v30c0,2.76-2.24,5-5,5H5c-2.76,0-5-2.24-5-5V5C0,2.24,2.24,0,5,0z"/>
<path class="st0" d="M130,0.8c2.32,0,4.2,1.88,4.2,4.2v30c0,2.32-1.88,4.2-4.2,4.2H5c-2.32,0-4.2-1.88-4.2-4.2l0,0V5
	c0-2.32,1.88-4.2,4.2-4.2l0,0H130 M130,0H5C2.24,0,0,2.24,0,5v30c0,2.76,2.24,5,5,5h125c2.76,0,5-2.24,5-5V5
	C135,2.24,132.76,0,130,0z"/>
<path class="st1" d="M47.42,10.24c0.03,0.74-0.24,1.46-0.75,2c-0.57,0.6-1.37,0.92-2.2,0.89c-1.74-0.01-3.14-1.43-3.13-3.17
	c0.01-0.82,0.33-1.61,0.92-2.2c0.58-0.59,1.38-0.92,2.21-0.9c0.42,0,0.84,0.08,1.23,0.25c0.36,0.15,0.68,0.38,0.94,0.67l-0.53,0.53
	c-0.4-0.48-1.01-0.74-1.64-0.71c-1.28-0.01-2.33,1.03-2.33,2.31c0,0.03,0,0.06,0,0.09c-0.02,1.3,1.02,2.37,2.33,2.39
	c0.62,0.01,1.23-0.23,1.67-0.66c0.31-0.33,0.49-0.77,0.5-1.22h-2.17V9.79h2.91C47.41,9.94,47.42,10.09,47.42,10.24z M52,7.74h-2.7
	v1.9h2.46v0.72H49.3v1.9H52V13h-3.5V7H52V7.74z M55.28,13h-0.77V7.74h-1.68V7H57v0.74h-1.72V13z M59.94,13V7h0.77v6H59.94z
	 M64.13,13h-0.77V7.74h-1.68V7h4.12v0.74h-1.67L64.13,13z M73.61,12.22c-1.22,1.21-3.18,1.21-4.4,0c-1.18-1.25-1.18-3.2,0-4.45
	c1.21-1.22,3.17-1.22,4.38-0.02c0.01,0.01,0.01,0.01,0.02,0.02C74.79,9.02,74.79,10.97,73.61,12.22z M69.78,11.72
	c0.9,0.9,2.36,0.9,3.26,0c0.89-0.98,0.89-2.46,0-3.44c-0.9-0.9-2.36-0.9-3.26,0C68.89,9.26,68.89,10.74,69.78,11.72z M75.58,13V7
	h0.94l2.92,4.67V7h0.77v6h-0.8l-3.05-4.89V13H75.58z"/>
<path class="st2" d="M68.14,21.75c-2.35,0.01-4.24,1.92-4.23,4.27c0.01,2.35,1.92,4.24,4.27,4.23c2.34-0.01,4.23-1.91,4.23-4.25
	c0.03-2.31-1.81-4.22-4.13-4.25C68.23,21.75,68.19,21.75,68.14,21.75z M68.14,28.58c-1.42,0.1-2.65-0.97-2.75-2.39
	c-0.1-1.42,0.97-2.65,2.39-2.75c1.42-0.1,2.65,0.97,2.75,2.39c0,0.06,0.01,0.12,0.01,0.17c0.07,1.36-0.98,2.51-2.34,2.58
	C68.18,28.58,68.16,28.58,68.14,28.58z M58.83,21.75c-2.35,0.01-4.25,1.91-4.24,4.26c0.01,2.35,1.91,4.25,4.26,4.24
	c2.34-0.01,4.24-1.91,4.24-4.25c0.03-2.31-1.81-4.22-4.13-4.25c-0.05,0-0.09,0-0.14,0L58.83,21.75z M58.83,28.58
	c-1.42,0.1-2.66-0.96-2.76-2.38c-0.1-1.42,0.96-2.66,2.38-2.76c1.42-0.1,2.66,0.96,2.76,2.38c0,0.06,0.01,0.12,0.01,0.18
	c0.07,1.36-0.98,2.51-2.34,2.58c-0.02,0-0.04,0-0.06,0H58.83z M47.74,23.06v1.8h4.32c-0.07,0.85-0.42,1.65-1,2.27
	c-0.87,0.89-2.08,1.37-3.33,1.32c-2.65,0-4.8-2.15-4.8-4.8s2.15-4.8,4.8-4.8c1.22-0.02,2.39,0.44,3.27,1.29l1.27-1.27
	c-1.2-1.21-2.83-1.88-4.53-1.87c-3.65-0.14-6.72,2.7-6.86,6.35c-0.14,3.65,2.7,6.72,6.35,6.86c0.17,0.01,0.34,0.01,0.51,0
	c1.73,0.08,3.41-0.6,4.61-1.85c1.05-1.15,1.61-2.66,1.56-4.22c0-0.38-0.03-0.76-0.1-1.13L47.74,23.06z M93.05,24.46
	c-0.53-1.57-1.98-2.65-3.64-2.71c-2.21,0-4,1.78-4.01,3.99c0,0.09,0,0.17,0.01,0.26c-0.05,2.3,1.77,4.2,4.07,4.25
	c0.05,0,0.1,0,0.15,0c1.42,0.01,2.75-0.7,3.54-1.88l-1.45-1c-0.44,0.73-1.23,1.18-2.09,1.18c-0.89,0.03-1.7-0.48-2.06-1.29
	l5.69-2.35L93.05,24.46z M87.25,25.88c-0.08-1.28,0.89-2.39,2.17-2.48c0.02,0,0.03,0,0.05,0c0.66-0.04,1.28,0.31,1.58,0.9
	L87.25,25.88z M82.63,30h1.87V17.5h-1.87V30z M79.57,22.7H79.5c-0.57-0.64-1.38-1-2.24-1c-2.35,0.11-4.16,2.11-4.05,4.46
	c0.11,2.19,1.86,3.94,4.05,4.05c0.86,0.01,1.68-0.35,2.24-1h0.06v0.61c0,1.63-0.87,2.5-2.27,2.5c-0.95-0.02-1.8-0.62-2.14-1.51
	l-1.63,0.68c0.63,1.53,2.12,2.52,3.77,2.51c2.19,0,4-1.29,4-4.43V22h-1.72V22.7z M77.43,28.58c-1.42-0.13-2.48-1.38-2.35-2.81
	c0.11-1.25,1.1-2.24,2.35-2.35c1.32,0.07,2.34,1.2,2.27,2.52c0,0.02,0,0.04,0,0.06c0.11,1.31-0.86,2.46-2.17,2.57
	c-0.04,0-0.07,0.01-0.11,0.01H77.43z M101.81,17.5h-4.47V30h1.87v-4.74h2.61c2.14,0.15,4-1.46,4.16-3.6c0.15-2.14-1.46-4-3.6-4.16
	c-0.19-0.01-0.37-0.01-0.56,0H101.81z M101.81,23.5H99.2v-4.26h2.65c1.18,0,2.14,0.96,2.14,2.14s-0.96,2.15-2.14,2.15L101.81,23.5z
	 M113.34,21.7c-1.39-0.08-2.7,0.67-3.33,1.91l1.66,0.69c0.33-0.62,1-0.98,1.7-0.92c0.99-0.12,1.88,0.59,2,1.58c0,0.01,0,0.02,0,0.03
	v0.13c-0.6-0.32-1.27-0.48-1.95-0.48c-1.79,0-3.6,1-3.6,2.81c0.07,1.59,1.42,2.83,3.02,2.75c0.03,0,0.05,0,0.08,0
	c0.96,0.07,1.88-0.39,2.4-1.2h0.06v1h1.8v-4.81c0-2.19-1.66-3.46-3.79-3.46L113.34,21.7z M113.11,28.55c-0.61,0-1.46-0.31-1.46-1.06
	c0-1,1.06-1.33,2-1.33c0.59-0.01,1.18,0.13,1.7,0.42c-0.13,1.12-1.06,1.97-2.19,2L113.11,28.55z M123.74,22l-2.14,5.42h-0.06
	L119.32,22h-2l3.33,7.58l-1.9,4.21h1.95L125.82,22H123.74z M106.93,30h1.87V17.5h-1.87V30z"/>
<linearGradient id="SVGID_1_" gradientUnits="userSpaceOnUse" x1="21.8025" y1="574.7125" x2="5.0225" y2="591.4925" gradientTransform="matrix(1 0 0 1 0 -566)">
	<stop  offset="0" style="stop-color:#00A0FF"/>
	<stop  offset="0.01" style="stop-color:#00A1FF"/>
	<stop  offset="0.26" style="stop-color:#00BEFF"/>
	<stop  offset="0.51" style="stop-color:#00D2FF"/>
	<stop  offset="0.76" style="stop-color:#00DFFF"/>
	<stop  offset="1" style="stop-color:#00E3FF"/>
</linearGradient>
<path class="st3" d="M10.44,7.54c-0.33,0.39-0.49,0.89-0.46,1.4v22.12c-0.03,0.51,0.13,1.01,0.46,1.4l0.07,0.07L22.9,20.15v-0.29
	L10.51,7.47L10.44,7.54z"/>
<linearGradient id="SVGID_2_" gradientUnits="userSpaceOnUse" x1="33.83" y1="586" x2="9.64" y2="586" gradientTransform="matrix(1 0 0 1 0 -566)">
	<stop  offset="0" style="stop-color:#FFE000"/>
	<stop  offset="0.41" style="stop-color:#FFBD00"/>
	<stop  offset="0.78" style="stop-color:#FFA500"/>
	<stop  offset="1" style="stop-color:#FF9C00"/>
</linearGradient>
<path class="st4" d="M27,24.28l-4.1-4.13v-0.29l4.1-4.14l0.09,0.05L32,18.56c1.4,0.79,1.4,2.09,0,2.89l-4.89,2.78L27,24.28z"/>
<linearGradient id="SVGID_3_" gradientUnits="userSpaceOnUse" x1="24.8275" y1="588.2975" x2="2.0675" y2="611.0475" gradientTransform="matrix(1 0 0 1 0 -566)">
	<stop  offset="0" style="stop-color:#FF3A44"/>
	<stop  offset="1" style="stop-color:#C31162"/>
</linearGradient>
<path class="st5" d="M27.12,24.22L22.9,20L10.44,32.46c0.59,0.52,1.46,0.54,2.08,0.06l14.61-8.3"/>
<linearGradient id="SVGID_4_" gradientUnits="userSpaceOnUse" x1="7.2975" y1="566.1825" x2="17.4575" y2="576.3425" gradientTransform="matrix(1 0 0 1 0 -566)">
	<stop  offset="0" style="stop-color:#32A071"/>
	<stop  offset="0.07" style="stop-color:#2DA771"/>
	<stop  offset="0.48" style="stop-color:#15CF74"/>
	<stop  offset="0.8" style="stop-color:#06E775"/>
	<stop  offset="1" style="stop-color:#00F076"/>
</linearGradient>
<path class="st6" d="M27.12,15.78l-14.61-8.3C11.89,7,11.02,7.02,10.43,7.54L22.9,20L27.12,15.78z"/>
<path class="st7" d="M27,24.13l-14.49,8.25c-0.59,0.44-1.41,0.44-2,0l-0.07,0.07l0.07,0.07c0.59,0.45,1.41,0.45,2,0l14.61-8.3
	L27,24.13z"/>
<path class="st8" d="M10.44,32.32c-0.33-0.39-0.49-0.89-0.46-1.4v0.15c-0.03,0.51,0.13,1.01,0.46,1.4l0.07-0.07L10.44,32.32z
	 M32,21.3l-5,2.83l0.09,0.09L32,21.44c0.57-0.27,0.95-0.82,1-1.44C32.89,20.56,32.52,21.04,32,21.3z"/>
<path class="st9" d="M12.51,7.62L32,18.7c0.52,0.26,0.89,0.74,1,1.3c-0.05-0.62-0.43-1.17-1-1.44L12.51,7.48
	c-1.4-0.79-2.54-0.13-2.54,1.47V9.1C10,7.49,11.12,6.83,12.51,7.62z"/>
</svg>
