<svg width="0" height="0" class="hidden">
	<defs>
		
		<!-- Benchmark Mark -->
		<symbol id="bb_mark" viewBox="0 0 72.65 58">
			<title>BB Mark</title>
			<path id="BB-mark" d="M22.87,23.17A2.86,2.86,0,0,0,25.74,26h2.35V20.33H25.74A2.86,2.86,0,0,0,22.87,23.17ZM47.47,32H45.12v5.69h2.35A2.85,2.85,0,1,0,47.54,32Zm-24.6,2.81a2.87,2.87,0,0,0,2.87,2.85h2.35v-5.7H25.74a2.87,2.87,0,0,0-2.87,2.85Zm24.6-14.43H45.12v5.7h2.35a2.85,2.85,0,1,0,0-5.7ZM36.32,0C16.26,0,0,13,0,29S16.26,58,36.32,58,72.65,45,72.65,29,56.39,0,36.32,0ZM56.68,35a8.6,8.6,0,0,1-8.36,8.56v0H39.59V31.94h-6V43.57h-8.7v0A8.59,8.59,0,0,1,16.53,35,8.48,8.48,0,0,1,19,29a8.54,8.54,0,0,1,5.88-14.56v0h8.7V26.06h6V14.43h8.73v0A8.54,8.54,0,0,1,54.21,29,8.53,8.53,0,0,1,56.68,35Z" style="fill:#ea0a2a"/>
		</symbol>
		<symbol id="bb_mark_grey" viewBox="0 0 72.65 58">
			<title>BB Mark</title>
			<path id="BB-mark" d="M22.87,23.17A2.86,2.86,0,0,0,25.74,26h2.35V20.33H25.74A2.86,2.86,0,0,0,22.87,23.17ZM47.47,32H45.12v5.69h2.35A2.85,2.85,0,1,0,47.54,32Zm-24.6,2.81a2.87,2.87,0,0,0,2.87,2.85h2.35v-5.7H25.74a2.87,2.87,0,0,0-2.87,2.85Zm24.6-14.43H45.12v5.7h2.35a2.85,2.85,0,1,0,0-5.7ZM36.32,0C16.26,0,0,13,0,29S16.26,58,36.32,58,72.65,45,72.65,29,56.39,0,36.32,0ZM56.68,35a8.6,8.6,0,0,1-8.36,8.56v0H39.59V31.94h-6V43.57h-8.7v0A8.59,8.59,0,0,1,16.53,35,8.48,8.48,0,0,1,19,29a8.54,8.54,0,0,1,5.88-14.56v0h8.7V26.06h6V14.43h8.73v0A8.54,8.54,0,0,1,54.21,29,8.53,8.53,0,0,1,56.68,35Z" style="fill:#eee"/>
		</symbol>


		<!-- Bank Icon -->
		<symbol id="bank" viewBox="0 0 15.6 15.56">
			<title>Bank Icon</title>
			<path id="bank" d="M15.6,15.24a.32.32,0,0,1-.33.32H.32A.32.32,0,0,1,0,15.24H0v-.66a.32.32,0,0,1,.32-.32h15a.32.32,0,0,1,.33.32v.65ZM0,6.68a.85.85,0,0,1,.25-.56l7.29-6a.42.42,0,0,1,.51,0l7.29,6a.87.87,0,0,1,.26.57.42.42,0,0,1-.33.4H13.65v5.21h1a.32.32,0,0,1,.33.32h0v.66a.33.33,0,0,1-.33.33H1a.33.33,0,0,1-.32-.33v-.65A.31.31,0,0,1,1,12.3H2V7.08H.32A.41.41,0,0,1,0,6.68ZM4.55,12.3V7.08H3.25v5.21h1.3Zm2.6,0V7.08H5.85v5.21h1.3Zm2.6,0V7.08H8.45v5.21h1.3Zm2.6-5.22h-1.3v5.21h1.3Z" style="fill:#fff"/>
		</symbol>

		<!-- Wealth Icon -->
		<symbol id="wealth" viewBox="0 0 20 16.01">
			<title>Wealth Icon</title>
			<path id="diamond" d="M10,16,0,5.66,4.14,0H15.87L20,5.66ZM1.55,5.56,10,14.31l8.45-8.75L15.21,1.12H4.79ZM.78,5.05H19.23V6.17H.78V5.05ZM5,.33,7.49,5.38l-1.13.46L3.9.78Zm10,0L16.1.79,13.64,5.84l-1.12-.46ZM9.46.28l1.08.55L7.46,5.88,6.39,5.34Zm1.08,0,3.07,5.06-1.07.54L9.46.83Zm-3,5.17L10.59,15l-1.18.32L6.34,5.77Zm5,0,1.18.32-3.08,9.55L9.41,15Z" style="fill:#fff"/>
		</symbol>
		<symbol id="wealth_dark" viewBox="0 0 20 16.01">
			<title>Wealth Icon</title>
			<path id="diamond" d="M10,16,0,5.66,4.14,0H15.87L20,5.66ZM1.55,5.56,10,14.31l8.45-8.75L15.21,1.12H4.79ZM.78,5.05H19.23V6.17H.78V5.05ZM5,.33,7.49,5.38l-1.13.46L3.9.78Zm10,0L16.1.79,13.64,5.84l-1.12-.46ZM9.46.28l1.08.55L7.46,5.88,6.39,5.34Zm1.08,0,3.07,5.06-1.07.54L9.46.83Zm-3,5.17L10.59,15l-1.18.32L6.34,5.77Zm5,0,1.18.32-3.08,9.55L9.41,15Z" style="fill:#3a3c43"/>
		</symbol>

		<!-- Premium Finance -->
		<symbol id="premium" viewBox="0 0 27.82 17">
			<title>Premium Finance Icon</title>
			<polygon points="13.81 0 16.42 5.89 22.8 6.47 17.97 10.72 19.41 17 13.81 13.72 8.31 17 9.76 10.72 4.93 6.47 11.3 5.89 13.81 0" fill="#fff" fill-rule="evenodd"/><polygon points="4.15 8.69 5.41 11.49 8.4 11.78 6.08 13.81 6.76 16.71 4.15 15.16 1.64 16.71 2.22 13.81 0 11.78 2.99 11.49 4.15 8.69" fill="#fff" fill-rule="evenodd"/><polygon points="23.66 8.69 24.82 11.49 27.82 11.78 25.6 13.81 26.27 16.71 23.66 15.16 21.06 16.71 21.73 13.81 19.41 11.78 22.41 11.49 23.66 8.69" fill="#fff" fill-rule="evenodd"/>
		</symbol>

		<!-- Title Icon -->
		<symbol id="title" viewBox="0 0 17 17">
			<title>Title Icon</title>
			<path id="paper-pen" d="M8.33,8.91l1.43,1.52,1.63-1.7h0l1.17-1.21h0l.38-.4L17,2.94l-.69-.77-.7-.76-4,4.17Zm1,2L7.91,9.39l-.76,2.32,2.15-.78Zm0-7.26V5.12h-6V3.65Zm1.17-1.26H2.11v4h7L10.46,5V2.4ZM11,1.25a.44.44,0,0,1,.39.47V4l.28-.28.89-.93V1.57a.78.78,0,0,0,0-.16,1.73,1.73,0,0,0-.39-.86,1.59,1.59,0,0,0-.77-.5L11,0H1.37L1.14.07,1,.12.82.21A1.67,1.67,0,0,0,0,1.31a2,2,0,0,0,0,.26V15.43a2,2,0,0,0,0,.26,1.82,1.82,0,0,0,.07.25.5.5,0,0,1,.05.13,1.67,1.67,0,0,0,1.1.89l.26,0H11l.23,0a1.12,1.12,0,0,0,.26-.08,1.6,1.6,0,0,0,.62-.44,1.87,1.87,0,0,0,.37-.73c0-.1,0-.2,0-.29V9.25l-1.17,1.21v4.82a.45.45,0,0,1-.38.47H1.55a.46.46,0,0,1-.38-.47V1.72a.31.31,0,0,0,0-.1.42.42,0,0,1,.38-.36H11Zm-.55,12.13H2.12v1.25h8.33ZM6.28,10.75H2.12V12H6.28Zm0-2.86H2.12V9.13H6.28V7.89Z" style="fill:#fff"/>
		</symbol>
		<symbol id="title_dark" viewBox="0 0 17 17">
			<title>Title Icon</title>
			<path id="paper-pen" d="M8.33,8.91l1.43,1.52,1.63-1.7h0l1.17-1.21h0l.38-.4L17,2.94l-.69-.77-.7-.76-4,4.17Zm1,2L7.91,9.39l-.76,2.32,2.15-.78Zm0-7.26V5.12h-6V3.65Zm1.17-1.26H2.11v4h7L10.46,5V2.4ZM11,1.25a.44.44,0,0,1,.39.47V4l.28-.28.89-.93V1.57a.78.78,0,0,0,0-.16,1.73,1.73,0,0,0-.39-.86,1.59,1.59,0,0,0-.77-.5L11,0H1.37L1.14.07,1,.12.82.21A1.67,1.67,0,0,0,0,1.31a2,2,0,0,0,0,.26V15.43a2,2,0,0,0,0,.26,1.82,1.82,0,0,0,.07.25.5.5,0,0,1,.05.13,1.67,1.67,0,0,0,1.1.89l.26,0H11l.23,0a1.12,1.12,0,0,0,.26-.08,1.6,1.6,0,0,0,.62-.44,1.87,1.87,0,0,0,.37-.73c0-.1,0-.2,0-.29V9.25l-1.17,1.21v4.82a.45.45,0,0,1-.38.47H1.55a.46.46,0,0,1-.38-.47V1.72a.31.31,0,0,0,0-.1.42.42,0,0,1,.38-.36H11Zm-.55,12.13H2.12v1.25h8.33ZM6.28,10.75H2.12V12H6.28Zm0-2.86H2.12V9.13H6.28V7.89Z" style="fill:#3a3c43"/>
		</symbol>
		
		<!-- Phone Icon -->
		<symbol id="phone_outline" viewBox="0 0 19.19 18.87">
			<title>Phone Icon Outline</title>
			<path id="icon-phone_outline_" data-name="icon-phone outline " d="M13.89,18.87a6.25,6.25,0,0,0,4.48-1.78A2.08,2.08,0,0,0,19,14.76a6.37,6.37,0,0,0-1.64-2.11c-1.35-1.33-2.27-1.87-3.2-1.87a3,3,0,0,0-2,1,4.32,4.32,0,0,0-.88,1.2,20.84,20.84,0,0,1-2.95-2.35A21.8,21.8,0,0,1,6,7.77a4.61,4.61,0,0,0,1.23-.86,2.7,2.7,0,0,0,1-2.38A5.57,5.57,0,0,0,6.31,1.75C5.35.79,4.47,0,3.46,0A2.33,2.33,0,0,0,1.79.79,6.17,6.17,0,0,0,0,5.6c.15,2.63,1.78,5.49,4.85,8.51C8.06,17.27,11.11,18.87,13.89,18.87Zm-11-17a1.07,1.07,0,0,1,.52-.31,4.64,4.64,0,0,1,1.7,1.27A4.64,4.64,0,0,1,6.58,4.79a1.15,1.15,0,0,1-.55,1,3.17,3.17,0,0,1-1.46.79.81.81,0,0,0-.66.92.79.79,0,0,0,.1.27,22.25,22.25,0,0,0,3.19,4,22.13,22.13,0,0,0,4.09,3.12.83.83,0,0,0,.75,0,.8.8,0,0,0,.46-.58,3.14,3.14,0,0,1,.81-1.43,1.34,1.34,0,0,1,.89-.55,4.06,4.06,0,0,1,2.05,1.4,5.94,5.94,0,0,1,1.26,1.52c0,.13.1.28-.29.66a4.68,4.68,0,0,1-3.33,1.31c-2.3,0-5-1.48-7.91-4.31S1.75,7.73,1.62,5.51A4.58,4.58,0,0,1,2.94,1.92Z" transform="translate(0.03 -0.01)" style="fill:#fff"/>
		</symbol>
		<symbol id="phone_outline_dark" viewBox="0 0 19.19 18.87">
			<title>Phone Icon Outline</title>
			<path id="icon-phone_outline_" data-name="icon-phone outline " d="M13.89,18.87a6.25,6.25,0,0,0,4.48-1.78A2.08,2.08,0,0,0,19,14.76a6.37,6.37,0,0,0-1.64-2.11c-1.35-1.33-2.27-1.87-3.2-1.87a3,3,0,0,0-2,1,4.32,4.32,0,0,0-.88,1.2,20.84,20.84,0,0,1-2.95-2.35A21.8,21.8,0,0,1,6,7.77a4.61,4.61,0,0,0,1.23-.86,2.7,2.7,0,0,0,1-2.38A5.57,5.57,0,0,0,6.31,1.75C5.35.79,4.47,0,3.46,0A2.33,2.33,0,0,0,1.79.79,6.17,6.17,0,0,0,0,5.6c.15,2.63,1.78,5.49,4.85,8.51C8.06,17.27,11.11,18.87,13.89,18.87Zm-11-17a1.07,1.07,0,0,1,.52-.31,4.64,4.64,0,0,1,1.7,1.27A4.64,4.64,0,0,1,6.58,4.79a1.15,1.15,0,0,1-.55,1,3.17,3.17,0,0,1-1.46.79.81.81,0,0,0-.66.92.79.79,0,0,0,.1.27,22.25,22.25,0,0,0,3.19,4,22.13,22.13,0,0,0,4.09,3.12.83.83,0,0,0,.75,0,.8.8,0,0,0,.46-.58,3.14,3.14,0,0,1,.81-1.43,1.34,1.34,0,0,1,.89-.55,4.06,4.06,0,0,1,2.05,1.4,5.94,5.94,0,0,1,1.26,1.52c0,.13.1.28-.29.66a4.68,4.68,0,0,1-3.33,1.31c-2.3,0-5-1.48-7.91-4.31S1.75,7.73,1.62,5.51A4.58,4.58,0,0,1,2.94,1.92Z" transform="translate(0.03 -0.01)" style="fill:#3a3c43"/>
		</symbol>

		<symbol id="phone_solid" viewBox="0 0 459 459">
			<title>Phone</title>
			<path d="M91.8,198.9c35.7,71.4,96.9,130.05,168.3,168.3L316.2,311.1c7.649-7.649,17.85-10.199,25.5-5.1
			c28.05,10.2,58.649,15.3,91.8,15.3c15.3,0,25.5,10.2,25.5,25.5v86.7c0,15.3-10.2,25.5-25.5,25.5C193.8,459,0,265.2,0,25.5
			C0,10.2,10.2,0,25.5,0h89.25c15.3,0,25.5,10.2,25.5,25.5c0,30.6,5.1,61.2,15.3,91.8c2.55,7.65,0,17.85-5.1,25.5L91.8,198.9z" fill="#fff" />
		</symbol>
		
		<!-- Magnify Glass Icon -->
		<symbol id="search_white" viewBox="0 0 446.25 446.25">
			<title>Search</title>
			<path d="M318.75,280.5h-20.4l-7.649-7.65c25.5-28.05,40.8-66.3,40.8-107.1C331.5,73.95,257.55,0,165.75,0S0,73.95,0,165.75
			S73.95,331.5,165.75,331.5c40.8,0,79.05-15.3,107.1-40.8l7.65,7.649v20.4L408,446.25L446.25,408L318.75,280.5z M165.75,280.5
			C102,280.5,51,229.5,51,165.75S102,51,165.75,51S280.5,102,280.5,165.75S229.5,280.5,165.75,280.5z" fill="#fff" />
		</symbol>
		<symbol id="search_red" viewBox="0 0 446.25 446.25">
			<title>Search</title>
			<path d="M318.75,280.5h-20.4l-7.649-7.65c25.5-28.05,40.8-66.3,40.8-107.1C331.5,73.95,257.55,0,165.75,0S0,73.95,0,165.75
			S73.95,331.5,165.75,331.5c40.8,0,79.05-15.3,107.1-40.8l7.65,7.649v20.4L408,446.25L446.25,408L318.75,280.5z M165.75,280.5
			C102,280.5,51,229.5,51,165.75S102,51,165.75,51S280.5,102,280.5,165.75S229.5,280.5,165.75,280.5z" fill="#ea0a2a" />
		</symbol>

		<!-- Close (X) Icon -->
		<symbol id="close_white" viewBox="0 0 352 512">
			<title>Close</title>
			<path fill="#fff" d="M242.72 256l100.07-100.07c12.28-12.28 12.28-32.19 0-44.48l-22.24-22.24c-12.28-12.28-32.19-12.28-44.48 0L176 189.28 75.93 89.21c-12.28-12.28-32.19-12.28-44.48 0L9.21 111.45c-12.28 12.28-12.28 32.19 0 44.48L109.28 256 9.21 356.07c-12.28 12.28-12.28 32.19 0 44.48l22.24 22.24c12.28 12.28 32.2 12.28 44.48 0L176 322.72l100.07 100.07c12.28 12.28 32.2 12.28 44.48 0l22.24-22.24c12.28-12.28 12.28-32.19 0-44.48L242.72 256z"></path>
		</symbol>

		<!-- Menu Icon -->
		<symbol id="menu" viewBox="0 0 459 459">
			<title>Menu</title>
			<path d="M0,382.5h459v-51H0V382.5z M0,255h459v-51H0V255z M0,76.5v51h459v-51H0z" fill="#fff" />
		</symbol>
		<symbol id="menu_dark" viewBox="0 0 459 459">
			<title>Menu</title>
			<path d="M0,382.5h459v-51H0V382.5z M0,255h459v-51H0V255z M0,76.5v51h459v-51H0z" fill="#000" />
		</symbol>

		<!-- Locations Icon -->
		<symbol id="locations_red" viewBox="0 0 200 300">
			<title>Locations</title>
			<path style="fill:#ea0a2a;" d="M100,0C44.8,0,0,44.8,0,100c0,16.8,4.1,32.6,11.5,46.5L100,300l88.5-153.5 c7.3-13.9,11.5-29.7,11.5-46.5C200,44.8,155.2,0,100,0 M100,150c-27.6,0-50-22.4-50-50s22.4-50,50-50s50,22.4,50,50 S127.6,150,100,150"/>
		</symbol>
		
		<!-- Menu Down Arrow -->
		<symbol id="menu_arrow" viewBox="0 0 319.9 206.6">
			<title>Menu Arrow</title>
			<path d="M143.05,199.55l-136-136a23.9,23.9,0,0,1,0-33.9l22.6-22.6a23.9,23.9,0,0,1,33.9,0l96.4,96.4,96.4-96.4a23.9,23.9,0,0,1,33.9,0l22.6,22.6a23.9,23.9,0,0,1,0,33.9l-136,136a23.78,23.78,0,0,1-33.8,0Z" fill="#fff" />
		</symbol>

		<!-- Menu Right Arrow -->
		<!-- <symbol id="right_arrow" viewBox="0 0 1792 1792">
			<title>Right Arrow</title>
			<path d="M1363 877l-742 742q-19 19-45 19t-45-19l-166-166q-19-19-19-45t19-45l531-531-531-531q-19-19-19-45t19-45l166-166q19-19 45-19t45 19l742 742q19 19 19 45t-19 45z" fill="#fff"/>
		</symbol> -->

		<!-- Footer EMail -->
		<symbol id="footer_email" viewBox="0 0 22.09 13.66">
			<title>Email Icon</title>
			<path id="icon-envelope" d="M22,.55A.64.64,0,0,0,22,.41s0-.06,0-.09l0,0a.69.69,0,0,0-.13-.11L21.62.1a.44.44,0,0,0-.15,0,.45.45,0,0,0-.16,0H.75a.45.45,0,0,0-.16,0A.34.34,0,0,0,.45.1L.33.18A.35.35,0,0,0,.2.29l0,0,0,.09C.09.46.06.5,0,.56A.45.45,0,0,0,0,.72.29.29,0,0,0,0,.81V12.87a.8.8,0,0,0,.81.8H21.26a.81.81,0,0,0,.82-.8V.81s0-.06,0-.09ZM18.85,1.62,11,7.53,3.21,1.62ZM1.63,12.06V2.45l8.9,6.73a.82.82,0,0,0,1,0l8.91-6.73v9.61Z" transform="translate(0.01 -0.01)" style="fill:#3a3c43"/>
		</symbol>

		<!-- Footer Bank Address -->
		<symbol id="footer_bank" viewBox="0 0 27.18 24.64">
			<title>Bank Icon</title>
			<path id="icon-structure" d="M26.37,10.69a.83.83,0,0,0,.81-.83.8.8,0,0,0-.35-.66L14.05.14a.78.78,0,0,0-.92,0L.35,9.2a.83.83,0,0,0-.31.92.8.8,0,0,0,.77.57H3.57V23H.81a.82.82,0,0,0,0,1.63H26.37a.82.82,0,0,0,0-1.63H23.61V10.69ZM9.52,23H5.18V10.69H9.52Zm6.53,0H11.13V10.69h4.92ZM22,23H17.66V10.69H22V23ZM3.37,9.05,13.59,1.81,23.81,9.05Z" transform="translate(0 0.01)" style="fill:#3a3c43"/>
		</symbol>
		<symbol id="footer_bank_red" viewBox="0 0 27.18 24.64">
			<title>Bank Icon</title>
			<path id="icon-structure" d="M26.37,10.69a.83.83,0,0,0,.81-.83.8.8,0,0,0-.35-.66L14.05.14a.78.78,0,0,0-.92,0L.35,9.2a.83.83,0,0,0-.31.92.8.8,0,0,0,.77.57H3.57V23H.81a.82.82,0,0,0,0,1.63H26.37a.82.82,0,0,0,0-1.63H23.61V10.69ZM9.52,23H5.18V10.69H9.52Zm6.53,0H11.13V10.69h4.92ZM22,23H17.66V10.69H22V23ZM3.37,9.05,13.59,1.81,23.81,9.05Z" transform="translate(0 0.01)" style="fill:#ea0a2a"/>
		</symbol>

		<!-- Long Arrow (for links) -->
		<symbol id="long_arrow" viewBox="0 0 24 13.9">
			<title>Arrow</title>
			<path id="arrow-long" d="M1.25,8.19H19.74l-3.62,3.59a1.23,1.23,0,0,0,0,1.73l0,0a1.23,1.23,0,0,0,1.74,0l0,0,5.75-5.71a1.09,1.09,0,0,0,.27-.4A1.1,1.1,0,0,0,24,7a1.12,1.12,0,0,0-.1-.48,1.09,1.09,0,0,0-.27-.4L17.88.36a1.26,1.26,0,0,0-1.76,0,1.23,1.23,0,0,0,0,1.75h0l3.62,3.59H1.25a1.24,1.24,0,0,0,0,2.48Z" transform="translate(-0.01 0)" style="fill:#ea0a2a"/>
		</symbol>
		<symbol id="long_arrow_dark" viewBox="0 0 24 13.9">
			<title>Arrow</title>
			<path id="arrow-long" d="M1.25,8.19H19.74l-3.62,3.59a1.23,1.23,0,0,0,0,1.73l0,0a1.23,1.23,0,0,0,1.74,0l0,0,5.75-5.71a1.09,1.09,0,0,0,.27-.4A1.1,1.1,0,0,0,24,7a1.12,1.12,0,0,0-.1-.48,1.09,1.09,0,0,0-.27-.4L17.88.36a1.26,1.26,0,0,0-1.76,0,1.23,1.23,0,0,0,0,1.75h0l3.62,3.59H1.25a1.24,1.24,0,0,0,0,2.48Z" transform="translate(-0.01 0)" style="fill:#3a3c43"/>
		</symbol>
		<symbol id="long_arrow_white" viewBox="0 0 24 13.9">
			<title>Arrow</title>
			<path id="arrow-long" d="M1.25,8.19H19.74l-3.62,3.59a1.23,1.23,0,0,0,0,1.73l0,0a1.23,1.23,0,0,0,1.74,0l0,0,5.75-5.71a1.09,1.09,0,0,0,.27-.4A1.1,1.1,0,0,0,24,7a1.12,1.12,0,0,0-.1-.48,1.09,1.09,0,0,0-.27-.4L17.88.36a1.26,1.26,0,0,0-1.76,0,1.23,1.23,0,0,0,0,1.75h0l3.62,3.59H1.25a1.24,1.24,0,0,0,0,2.48Z" transform="translate(-0.01 0)" style="fill:#fff"/>
		</symbol>

		

		<!-- Social Network Icons -->
		<symbol id="facebook" viewBox="0 0 8.5 19.06">
			<title>Facebook</title>
			<path id="facebook" d="M5.65,19.05H1.88V9.52H0V6.23H1.88v-2C1.88,1.58,2.94,0,6,0H8.48V3.27H6.9c-1.17,0-1.25.46-1.25,1.32V6.23H8.49L8.16,9.52H5.65Z" transform="translate(0.01 0.01)" style="fill:#ea0a2a"/>
		</symbol>

		<symbol id="instagram" viewBox="0 0 503.84 503.84">
			<title>Instagram</title>
			<path d="M251.92,45.39c67.27,0,75.23.26,101.8,1.47,24.56,1.12,37.9,5.22,46.78,8.67a78,78,0,0,1,29,18.85,78,78,0,0,1,18.85,29c3.45,8.88,7.55,22.22,8.67,46.78,1.21,26.57,1.47,34.53,1.47,101.8s-.26,75.23-1.47,101.8c-1.12,24.56-5.22,37.9-8.67,46.78a83.51,83.51,0,0,1-47.81,47.81c-8.88,3.45-22.22,7.55-46.78,8.67-26.56,1.21-34.53,1.47-101.8,1.47s-75.24-.26-101.8-1.47c-24.56-1.12-37.9-5.22-46.78-8.67a78,78,0,0,1-29-18.85,78,78,0,0,1-18.85-29c-3.45-8.88-7.55-22.22-8.67-46.78-1.21-26.57-1.47-34.53-1.47-101.8s.26-75.23,1.47-101.8c1.12-24.56,5.22-37.9,8.67-46.78a78,78,0,0,1,18.85-29,78,78,0,0,1,29-18.85c8.88-3.45,22.22-7.55,46.78-8.67,26.57-1.21,34.53-1.47,101.8-1.47m0-45.39c-68.42,0-77,.29-103.87,1.52S102.93,7,86.9,13.23A123.52,123.52,0,0,0,42.28,42.28a123.52,123.52,0,0,0-29,44.62C7,102.93,2.74,121.24,1.52,148.05S0,183.5,0,251.92s.29,77,1.52,103.87S7,400.91,13.23,416.94a123.52,123.52,0,0,0,29.05,44.62A123.68,123.68,0,0,0,86.9,490.62c16,6.22,34.34,10.48,61.15,11.71s35.45,1.51,103.87,1.51,77-.29,103.87-1.51,45.12-5.49,61.15-11.71a128.85,128.85,0,0,0,73.68-73.68c6.22-16,10.48-34.34,11.71-61.15s1.51-35.45,1.51-103.87-.29-77-1.51-103.87-5.49-45.12-11.71-61.15a123.68,123.68,0,0,0-29.06-44.62,123.52,123.52,0,0,0-44.62-29C400.91,7,382.6,2.74,355.79,1.52S320.34,0,251.92,0Z" style="fill:#ea0a2a"/><path d="M251.92,122.56A129.37,129.37,0,1,0,381.29,251.92,129.35,129.35,0,0,0,251.92,122.56Zm0,213.33a84,84,0,1,1,84-84A84,84,0,0,1,251.92,335.89Z" style="fill:#ea0a2a"/><circle cx="386.4" cy="117.44" r="30.23" style="fill:#ea0a2a"/>
		</symbol>


		<!-- Hero Banner Benchmark Mark -->
		<symbol id="hero_banner_mark" viewBox="0 0 3340 51.82">
			<title>BB-mark</title>
			<path d="M1661.5,16.54a2,2,0,0,0,2,2h1.68V14.51h-1.68a2,2,0,0,0-2,2Zm17.57,6.29h-1.68v4.06h1.68a2,2,0,0,0,0-4.06Zm-17.57,2a2,2,0,0,0,2,2h1.68V22.8h-1.68a2.06,2.06,0,0,0-2,2Zm17.57-10.3h-1.68V18.6h1.68a2,2,0,0,0,0-4.07Zm-8-14.53c-14.32,0-25.93,9.27-25.93,20.7s11.61,20.7,25.93,20.7S1697,32.13,1697,20.7,1685.43,0,1671.11,0Zm14.53,25a6.14,6.14,0,0,1-6,6.11v0h-6.23V22.8h-4.28v8.3H1663v0a6.15,6.15,0,0,1-6-6.11,6.05,6.05,0,0,1,1.77-4.28,6.1,6.1,0,0,1,4.2-10.39v0h6.21v8.3h4.28V10.3h6.23v0a6.1,6.1,0,0,1,4.2,10.39A6.09,6.09,0,0,1,1685.64,25Z" style="fill:#fff;opacity:0.75"/><path d="M1705.66,21.24v.27c0,15.21-15.67,27.55-35,27.55s-35-12.34-35-27.55v-.27H0V51.82H3340V21.24Z" style="fill:#fff"/>
		</symbol>



		<!-- Help Center -->
		<symbol id="help_contact" viewBox="0 0 100 100">
			<title>Contact Staff</title>
			<path d="M10.58,40.05l-5.35-4,5.35-4ZM36.24,12.19H85.5V42.92L56,64.7l-1.72-1.27-.47-.32a7.2,7.2,0,0,0-7.51,0,5.72,5.72,0,0,0-.48.32l-1,.76-.79.58L14.5,42.94V12.19ZM46.38,5a5.91,5.91,0,0,1,7,0L57.7,8.28H42.08Zm48.39,31-5.35,4v-8ZM59.3,67.13,96.09,40V94.21Zm-11.16-.55a3.32,3.32,0,0,1,2.91-.46,3,3,0,0,1,.91.46l2.16,1.59L92,96.09h-84ZM3.91,40,40.7,67.2,3.91,94.28ZM100,36.06c0-.05,0-.1,0-.15a.13.13,0,0,0,0-.06,1.6,1.6,0,0,0-.1-.42v0a1.11,1.11,0,0,0-.07-.16l0-.06a.75.75,0,0,0-.07-.12.18.18,0,0,0,0-.07l0-.06a.1.1,0,0,1,0,0l-.06-.06-.09-.11-.05,0a.79.79,0,0,0-.15-.12v0h0l0,0-9.77-7.33V10.24a2,2,0,0,0-2-2H64.22L55.71,1.9A9.89,9.89,0,0,0,44,1.92L35.58,8.28h-23a2,2,0,0,0-2,2v16.9L.8,34.51h0l0,0-.13.11-.05,0-.09.1-.06.07s0,0,0,0l0,.06,0,.07a.75.75,0,0,0-.07.12l0,.06-.07.16a0,0,0,0,0,0,0,1.6,1.6,0,0,0-.1.42.13.13,0,0,0,0,.06c0,.05,0,.1,0,.15v60.2a3.66,3.66,0,0,0,1.12,2.61,2,2,0,0,0,.76.58,4,4,0,0,0,2,.55H96.09A3.84,3.84,0,0,0,100,96.26V36.06ZM28.07,30H71.93a2,2,0,1,0,0-3.91H28.07a2,2,0,1,0,0,3.91m0,11H71.93a2,2,0,1,0,0-3.91H28.07a2,2,0,1,0,0,3.91m35.59,7.07H36.34a2,2,0,1,0,0,3.91H63.66a2,2,0,1,0,0-3.91" transform="translate(0 0)" style="fill:#ea0a2a"/>
		</symbol>

		<symbol id="help_center" viewBox="0 0 89.99 90">
			<title>Help Center</title>
			<path d="M87.64,75.89l-1-1C79.15,67.41,65.42,53.67,54,42.28L76.34,20l4.78.33h.1a1.5,1.5,0,0,0,1.31-.77L89.8,6.44a1.5,1.5,0,0,0-.25-1.78L85.34.45A1.5,1.5,0,0,0,83.56.2L70.45,7.48a1.49,1.49,0,0,0-.77,1.4L70,13.66,47.72,36,35.93,24.17A18.22,18.22,0,0,0,13,.92L13,.94l-.07,0a1.62,1.62,0,0,0-.43.29l0,0s0,0,0,0a1.52,1.52,0,0,0-.28.43l0,.07a1.64,1.64,0,0,0-.1.49v.07a1.61,1.61,0,0,0,.07.43l0,.07,0,.06a1.42,1.42,0,0,0,.29.43l0,0,7.08,7.09A3.52,3.52,0,0,1,20.57,13a3.57,3.57,0,0,1-1,2.53L16,19.08a3.57,3.57,0,0,1-5,0L3.84,12l0,0a1.62,1.62,0,0,0-.43-.29l-.07,0-.06,0a1.65,1.65,0,0,0-.43-.06H2.75a1.33,1.33,0,0,0-.49.09l-.07,0a1.42,1.42,0,0,0-.43.29l0,0,0,0a1.68,1.68,0,0,0-.29.44l0,.07,0,.06A18.25,18.25,0,0,0,18.69,36.49a18.42,18.42,0,0,0,5.93-1L32.13,43c-.13,0-.25,0-.38,0A5.26,5.26,0,0,0,28,44.51L1.55,71a5.31,5.31,0,0,0,0,7.5l2.3,2.3h0l7.7,7.7a5.31,5.31,0,0,0,7.5,0L45.49,62A5.28,5.28,0,0,0,47,58.26c0-.14,0-.26,0-.39L76.33,87.21A8,8,0,0,0,87.64,75.89Zm-15-60.6v0a1.4,1.4,0,0,0,.29-.44l0-.06a1.58,1.58,0,0,0,.1-.49v-.15l-.32-4.51L84,3.36,86.64,6l-6.26,11.3L75.87,17h-.14a1.65,1.65,0,0,0-.5.1l-.06,0a1.52,1.52,0,0,0-.43.28l0,0-28,28-2.11-2.11ZM26.09,32.73a1.49,1.49,0,0,0-1.64-.35A15.25,15.25,0,0,1,3.62,16l5.19,5.2a6.55,6.55,0,0,0,9.27,0l3.56-3.55a6.54,6.54,0,0,0,0-9.27l-5.2-5.2A15.23,15.23,0,0,1,32.91,23.74l-1.56,1.57a1.5,1.5,0,0,0,1.06,2.55,1.51,1.51,0,0,0,1.06-.44l.74-.75L45.6,38.07l-3.1,3.11a4.31,4.31,0,0,0-6,.06l-.93.94ZM10.3,83,7,79.7,29.84,56.88a2.37,2.37,0,0,1,3.28,0,2.31,2.31,0,0,1,0,3.28ZM43.38,59.9,16.94,86.34a2.39,2.39,0,0,1-3.28,0l-1.25-1.25L35.23,62.27a5.31,5.31,0,0,0,0-7.5,5.29,5.29,0,0,0-7.5,0L4.91,77.59,3.66,76.34a2.32,2.32,0,0,1,0-3.28L30.1,46.62a2.33,2.33,0,0,1,3.29,0l10,10a2.33,2.33,0,0,1,0,3.29Zm3.27-8.49-2.12,2.13-8.07-8.07,2.13-2.12a1.35,1.35,0,0,1,1.87,0l1,1h0l4.21,4.21h0l1,1A1.32,1.32,0,0,1,46.65,51.41ZM85.53,85.1a5,5,0,0,1-7.09,0L47.82,54.46l.94-.94a4.31,4.31,0,0,0,.06-6l3.11-3.11C63.31,55.78,77,69.52,84.56,77l1,1a5,5,0,0,1,0,7.1Z" style="fill:#ea0a2a"/><circle cx="81.98" cy="81.55" r="2.4" style="fill:#ea0a2a"/>
		</symbol>



	</defs>
</svg>
